<?xml version="1.0" encoding="UTF-8"?>
<svg id="Layer_1" data-name="Layer 1" xmlns="http://www.w3.org/2000/svg" version="1.1" viewBox="0 0 32 32">
  <defs>
    <style>
      .cls-1 {
        stroke: #231f20;
      }

      .cls-1, .cls-2, .cls-3 {
        fill: none;
        stroke-linecap: round;
        stroke-linejoin: round;
      }

      .cls-1, .cls-3 {
        stroke-width: 10px;
      }

      .cls-2, .cls-3 {
        stroke: #fff;
      }

      .cls-4 {
        fill: #000;
        stroke-width: 0px;
      }
    </style>
  </defs>
  <path class="cls-4" d="M16,0C7.2,0,0,7.2,0,16s7.2,16,16,16,16-7.2,16-16S24.8,0,16,0"/>
  <g>
    <path class="cls-2" d="M21.3,5h-12.6v21.8M6.4,23.9V6.6"/>
    <path class="cls-2" d="M11.3,7.4h14.5l-11.6,12.8,8.1,7.1M17.8,19.9l5.6,4.6M13.2,17.2l7.1-7.5"/>
  </g>
  <path class="cls-4" d="M-221.4-84c-55.2,0-100,44.8-100,100s44.8,100,100,100S-121.4,71.2-121.4,16s-44.8-100-100-100"/>
  <path class="cls-3" d="M-193.6-43.9h-67.7v117.4M-273.8,57.7V-35.3"/>
  <path class="cls-3" d="M-247.3-31.1h78.3l-62.6,68.9,43.4,38.1M-212.2,36.2l30,24.9M-237.1,21.9l38.3-40.4"/>
  <path class="cls-4" d="M-221.4-306.8c50.7,0,92,41.3,92,92s-41.3,92-92,92-92-41.3-92-92,41.3-92,92-92M-221.4-314.8c-55.2,0-100,44.8-100,100s44.8,100,100,100,100-44.8,100-100-44.8-100-100-100"/>
  <path class="cls-1" d="M-193.6-274.7h-67.7v117.4M-273.8-173.1v-93"/>
  <path class="cls-1" d="M-247.3-261.9h78.3l-62.6,68.9,43.4,38.1M-212.2-194.6l30,24.9M-237.1-208.9l38.3-40.4"/>
</svg>